<?xml version="1.0" encoding="utf-8"?>
<!-- Generator: Adobe Illustrator 15.0.0, SVG Export Plug-In . SVG Version: 6.00 Build 0)  -->
<!DOCTYPE svg PUBLIC "-//W3C//DTD SVG 1.1//EN" "http://www.w3.org/Graphics/SVG/1.1/DTD/svg11.dtd">
<svg version="1.1" id="Capa_1" xmlns="http://www.w3.org/2000/svg" xmlns:xlink="http://www.w3.org/1999/xlink" x="0px" y="0px"
	 width="512px" height="512px" viewBox="0 0 512 512" enable-background="new 0 0 512 512" xml:space="preserve">
<g>
	<path fill="#1FB0FF" d="M508.852,3.132c-2.093-1.982-4.6-2.978-7.527-2.978c-54.554,0-99.598,7.418-135.132,22.261
		c-35.529,14.845-72.944,41.81-112.242,80.894c-16.72,16.932-35.116,37.313-55.181,61.141l-118.828,6.269
		c-3.345,0.425-6.062,2.093-8.152,5.019L1.557,296.141c-2.509,4.18-1.984,8.258,1.567,12.23l20.064,20.064
		c1.882,1.882,4.284,2.82,7.212,2.82c1.255,0,2.193-0.105,2.82-0.314l86.539-26.656l88.104,88.109l-26.652,86.53
		c-1.042,3.767-0.207,7.107,2.509,10.035l20.066,20.068c2.3,1.875,4.706,2.818,7.212,2.818c1.884,0,3.556-0.422,5.018-1.257
		l120.403-70.231c2.928-2.089,4.598-4.803,5.017-8.147l6.269-118.833c23.83-20.067,44.215-38.46,61.142-55.185
		c37.218-37.419,63.705-75.091,79.481-113.027C504.111,107.227,512,62.232,512,10.189C511.997,7.472,510.952,5.122,508.852,3.132z
		 M432.986,121.81c-5.848,5.849-12.959,8.779-21.32,8.779s-15.465-2.927-21.32-8.779c-5.848-5.854-8.778-12.961-8.778-21.324
		c0-8.358,2.928-15.466,8.778-21.32c5.852-5.85,12.959-8.778,21.32-8.778s15.469,2.925,21.32,8.778
		c5.851,5.853,8.778,12.962,8.778,21.32C441.765,108.85,438.845,115.952,432.986,121.81z"/>
</g>
</svg>
